<svg width="384" height="381" viewBox="0 0 384 381" fill="none" xmlns="http://www.w3.org/2000/svg">
<line x1="198.5" y1="5.00533" x2="194.5" y2="380.005" stroke="white"/>
<line x1="194.5" x2="194.5" y2="365" stroke="white"/>
<circle cx="198" cy="186" r="4" fill="white"/>
<circle cx="194" cy="190" r="190" fill="white"/>
<circle cx="194" cy="190" r="175" fill="#FF8906"/>
<circle cx="197" cy="190" r="15" fill="white"/>
<line x1="198.5" y1="0.00526287" x2="194.5" y2="380.005" stroke="white"/>
<line x1="199" y1="0.0105257" x2="195" y2="380.011" stroke="white" stroke-width="2"/>
<line x1="329.704" y1="61.7098" x2="66.7044" y2="322.71" stroke="white" stroke-width="2"/>
<line x1="60.7045" y1="54.2903" x2="329.704" y2="321.29" stroke="white" stroke-width="2"/>
<line x1="19.0057" y1="189" x2="369.006" y2="191" stroke="white" stroke-width="2"/>
<circle cx="197" cy="190" r="5" fill="#FF8906"/>
<path d="M57.8248 200.38C58.3821 200.967 58.6608 201.627 58.6608 202.36C58.6608 203.093 58.3674 203.709 57.7808 204.208C57.2234 204.707 56.6221 204.956 55.9768 204.956C55.2141 204.956 54.5688 204.663 54.0408 204.076L46.1208 195.716L43.9648 197.696V202.316C43.9648 203.079 43.7154 203.724 43.2168 204.252C42.7181 204.751 42.0874 205 41.3248 205C40.5621 205 39.9314 204.751 39.4328 204.252C38.9341 203.724 38.6848 203.079 38.6848 202.316V175.124C38.6848 174.361 38.9341 173.731 39.4328 173.232C39.9314 172.704 40.5621 172.44 41.3248 172.44C42.0874 172.44 42.7181 172.704 43.2168 173.232C43.7154 173.731 43.9648 174.361 43.9648 175.124V191.404L53.3808 182.296C53.9381 181.739 54.5834 181.46 55.3168 181.46C55.9621 181.46 56.5341 181.739 57.0328 182.296C57.5608 182.824 57.8248 183.367 57.8248 183.924C57.8248 184.628 57.4728 185.288 56.7688 185.904L50.1248 192.02L57.8248 200.38ZM83.4273 192.68C83.3979 193.384 83.1193 193.956 82.5913 194.396C82.0633 194.836 81.4473 195.056 80.7433 195.056H66.2233C66.5753 196.787 67.3819 198.151 68.6433 199.148C69.9046 200.116 71.3273 200.6 72.9113 200.6C74.1139 200.6 75.0526 200.497 75.7273 200.292C76.4019 200.057 76.9299 199.823 77.3113 199.588C77.7219 199.324 78.0006 199.148 78.1473 199.06C78.6753 198.796 79.1739 198.664 79.6433 198.664C80.2593 198.664 80.7873 198.884 81.2273 199.324C81.6673 199.764 81.8873 200.277 81.8873 200.864C81.8873 201.656 81.4766 202.375 80.6553 203.02C79.8339 203.695 78.7339 204.267 77.3553 204.736C75.9766 205.205 74.5833 205.44 73.1753 205.44C70.7113 205.44 68.5553 204.927 66.7073 203.9C64.8886 202.873 63.4806 201.465 62.4833 199.676C61.4859 197.857 60.9873 195.819 60.9873 193.56C60.9873 191.037 61.5153 188.823 62.5713 186.916C63.6273 185.009 65.0206 183.557 66.7513 182.56C68.4819 181.533 70.3299 181.02 72.2953 181.02C74.2313 181.02 76.0499 181.548 77.7513 182.604C79.4819 183.66 80.8606 185.083 81.8873 186.872C82.9139 188.661 83.4273 190.597 83.4273 192.68ZM72.2953 185.86C68.8926 185.86 66.8833 187.459 66.2673 190.656H77.7953V190.348C77.6779 189.116 77.0766 188.06 75.9913 187.18C74.9059 186.3 73.6739 185.86 72.2953 185.86ZM108.951 192.68C108.921 193.384 108.643 193.956 108.115 194.396C107.587 194.836 106.971 195.056 106.267 195.056H91.7467C92.0987 196.787 92.9054 198.151 94.1667 199.148C95.428 200.116 96.8507 200.6 98.4347 200.6C99.6374 200.6 100.576 200.497 101.251 200.292C101.925 200.057 102.453 199.823 102.835 199.588C103.245 199.324 103.524 199.148 103.671 199.06C104.199 198.796 104.697 198.664 105.167 198.664C105.783 198.664 106.311 198.884 106.751 199.324C107.191 199.764 107.411 200.277 107.411 200.864C107.411 201.656 107 202.375 106.179 203.02C105.357 203.695 104.257 204.267 102.879 204.736C101.5 205.205 100.107 205.44 98.6987 205.44C96.2347 205.44 94.0787 204.927 92.2307 203.9C90.412 202.873 89.004 201.465 88.0067 199.676C87.0094 197.857 86.5107 195.819 86.5107 193.56C86.5107 191.037 87.0387 188.823 88.0947 186.916C89.1507 185.009 90.544 183.557 92.2747 182.56C94.0054 181.533 95.8534 181.02 97.8187 181.02C99.7547 181.02 101.573 181.548 103.275 182.604C105.005 183.66 106.384 185.083 107.411 186.872C108.437 188.661 108.951 190.597 108.951 192.68ZM97.8187 185.86C94.416 185.86 92.4067 187.459 91.7907 190.656H103.319V190.348C103.201 189.116 102.6 188.06 101.515 187.18C100.429 186.3 99.1974 185.86 97.8187 185.86ZM125.542 181.02C127.566 181.02 129.399 181.548 131.042 182.604C132.685 183.631 133.975 185.068 134.914 186.916C135.882 188.764 136.366 190.861 136.366 193.208C136.366 195.555 135.897 197.667 134.958 199.544C134.019 201.392 132.729 202.844 131.086 203.9C129.473 204.927 127.683 205.44 125.718 205.44C124.31 205.44 122.975 205.161 121.714 204.604C120.482 204.017 119.455 203.313 118.634 202.492V211.116C118.634 211.879 118.385 212.509 117.886 213.008C117.387 213.536 116.757 213.8 115.994 213.8C115.231 213.8 114.601 213.551 114.102 213.052C113.603 212.553 113.354 211.908 113.354 211.116V184.144C113.354 183.381 113.603 182.751 114.102 182.252C114.601 181.724 115.231 181.46 115.994 181.46C116.757 181.46 117.387 181.724 117.886 182.252C118.385 182.751 118.634 183.381 118.634 184.144V184.32C119.338 183.44 120.321 182.677 121.582 182.032C122.843 181.357 124.163 181.02 125.542 181.02ZM124.882 200.6C126.759 200.6 128.299 199.896 129.502 198.488C130.705 197.08 131.306 195.32 131.306 193.208C131.306 191.096 130.705 189.351 129.502 187.972C128.329 186.564 126.789 185.86 124.882 185.86C122.975 185.86 121.421 186.564 120.218 187.972C119.015 189.351 118.414 191.096 118.414 193.208C118.414 195.32 119.015 197.08 120.218 198.488C121.421 199.896 122.975 200.6 124.882 200.6ZM177.696 200.688C178.078 200.923 178.371 201.231 178.576 201.612C178.811 201.993 178.928 202.389 178.928 202.8C178.928 203.328 178.752 203.812 178.4 204.252C177.96 204.78 177.286 205.044 176.376 205.044C175.672 205.044 175.027 204.883 174.44 204.56C172.328 203.357 171.272 200.908 171.272 197.212C171.272 196.156 170.92 195.32 170.216 194.704C169.542 194.088 168.559 193.78 167.268 193.78H159.04V202.316C159.04 203.108 158.82 203.753 158.38 204.252C157.97 204.751 157.412 205 156.708 205C155.858 205 155.11 204.751 154.464 204.252C153.848 203.724 153.54 203.079 153.54 202.316V176.884C153.54 176.121 153.79 175.491 154.288 174.992C154.816 174.464 155.462 174.2 156.224 174.2H168.896C170.422 174.2 171.859 174.611 173.208 175.432C174.558 176.253 175.628 177.383 176.42 178.82C177.242 180.257 177.652 181.871 177.652 183.66C177.652 185.127 177.256 186.564 176.464 187.972C175.672 189.351 174.646 190.451 173.384 191.272C175.232 192.563 176.244 194.293 176.42 196.464C176.508 196.933 176.552 197.388 176.552 197.828C176.67 198.737 176.787 199.397 176.904 199.808C177.022 200.189 177.286 200.483 177.696 200.688ZM168.676 189.248C169.204 189.248 169.718 188.999 170.216 188.5C170.715 188.001 171.126 187.341 171.448 186.52C171.771 185.669 171.932 184.76 171.932 183.792C171.932 182.971 171.771 182.223 171.448 181.548C171.126 180.844 170.715 180.287 170.216 179.876C169.718 179.465 169.204 179.26 168.676 179.26H159.04V189.248H168.676ZM226.023 202.316C226.023 203.079 225.759 203.724 225.231 204.252C224.733 204.751 224.102 205 223.339 205C222.606 205 221.99 204.751 221.491 204.252C220.993 203.724 220.743 203.079 220.743 202.316V175.124C220.743 174.361 220.993 173.731 221.491 173.232C222.019 172.704 222.665 172.44 223.427 172.44C224.161 172.44 224.777 172.704 225.275 173.232C225.774 173.731 226.023 174.361 226.023 175.124V202.316ZM237.883 202.316C237.883 203.079 237.619 203.724 237.091 204.252C236.592 204.751 235.961 205 235.199 205C234.465 205 233.849 204.751 233.351 204.252C232.852 203.724 232.603 203.079 232.603 202.316V175.124C232.603 174.361 232.852 173.731 233.351 173.232C233.879 172.704 234.524 172.44 235.287 172.44C236.02 172.44 236.636 172.704 237.135 173.232C237.633 173.731 237.883 174.361 237.883 175.124V202.316ZM248.994 202.316C248.994 203.079 248.745 203.724 248.246 204.252C247.747 204.751 247.117 205 246.354 205C245.591 205 244.961 204.751 244.462 204.252C243.963 203.724 243.714 203.079 243.714 202.316V184.144C243.714 183.381 243.963 182.751 244.462 182.252C244.961 181.724 245.591 181.46 246.354 181.46C247.117 181.46 247.747 181.724 248.246 182.252C248.745 182.751 248.994 183.381 248.994 184.144V202.316ZM246.31 178.6C245.313 178.6 244.609 178.439 244.198 178.116C243.787 177.793 243.582 177.221 243.582 176.4V175.564C243.582 174.743 243.802 174.171 244.242 173.848C244.682 173.525 245.386 173.364 246.354 173.364C247.381 173.364 248.099 173.525 248.51 173.848C248.921 174.171 249.126 174.743 249.126 175.564V176.4C249.126 177.251 248.906 177.837 248.466 178.16C248.055 178.453 247.337 178.6 246.31 178.6ZM267.005 181.02C269.997 181.02 272.065 181.915 273.209 183.704C274.353 185.464 274.925 187.913 274.925 191.052V202.316C274.925 203.079 274.675 203.724 274.177 204.252C273.678 204.751 273.047 205 272.285 205C271.522 205 270.891 204.751 270.393 204.252C269.894 203.724 269.645 203.079 269.645 202.316V191.052C269.645 189.439 269.307 188.177 268.633 187.268C267.958 186.329 266.799 185.86 265.157 185.86C263.455 185.86 262.121 186.359 261.153 187.356C260.185 188.324 259.701 189.556 259.701 191.052V202.316C259.701 203.079 259.451 203.724 258.953 204.252C258.454 204.751 257.823 205 257.061 205C256.298 205 255.667 204.751 255.169 204.252C254.67 203.724 254.421 203.079 254.421 202.316V184.144C254.421 183.381 254.67 182.751 255.169 182.252C255.667 181.724 256.298 181.46 257.061 181.46C257.823 181.46 258.454 181.724 258.953 182.252C259.451 182.751 259.701 183.381 259.701 184.144V184.892C260.493 183.836 261.519 182.927 262.781 182.164C264.071 181.401 265.479 181.02 267.005 181.02ZM300.123 181.02C300.886 181.02 301.517 181.269 302.015 181.768C302.514 182.267 302.763 182.912 302.763 183.704V203.284C302.763 206.863 301.649 209.503 299.419 211.204C297.219 212.935 294.418 213.8 291.015 213.8C290.135 213.8 288.918 213.653 287.363 213.36C285.838 213.067 284.753 212.773 284.107 212.48C282.67 211.864 281.951 211.013 281.951 209.928C281.951 209.723 281.995 209.488 282.083 209.224C282.259 208.579 282.553 208.08 282.963 207.728C283.403 207.405 283.873 207.244 284.371 207.244C284.665 207.244 284.943 207.288 285.207 207.376C285.325 207.405 286.043 207.669 287.363 208.168C288.713 208.696 289.93 208.96 291.015 208.96C293.186 208.96 294.799 208.52 295.855 207.64C296.941 206.789 297.483 205.572 297.483 203.988V201.876C296.838 202.785 295.855 203.607 294.535 204.34C293.245 205.073 291.851 205.44 290.355 205.44C288.302 205.44 286.425 204.927 284.723 203.9C283.051 202.844 281.731 201.392 280.763 199.544C279.795 197.696 279.311 195.599 279.311 193.252C279.311 190.905 279.781 188.808 280.719 186.96C281.687 185.083 282.993 183.631 284.635 182.604C286.307 181.548 288.155 181.02 290.179 181.02C291.675 181.02 293.069 181.328 294.359 181.944C295.65 182.56 296.691 183.308 297.483 184.188V183.704C297.483 182.941 297.733 182.311 298.231 181.812C298.73 181.284 299.361 181.02 300.123 181.02ZM291.015 200.6C292.981 200.6 294.579 199.911 295.811 198.532C297.073 197.124 297.703 195.364 297.703 193.252C297.703 191.14 297.073 189.38 295.811 187.972C294.579 186.564 292.981 185.86 291.015 185.86C289.05 185.86 287.451 186.564 286.219 187.972C284.987 189.38 284.371 191.14 284.371 193.252C284.371 195.364 284.987 197.124 286.219 198.532C287.451 199.911 289.05 200.6 291.015 200.6Z" fill="black"/>
<path d="M57.8248 200.38L57.0892 201.057L57.0945 201.063L57.0998 201.069L57.8248 200.38ZM57.7808 204.208L57.1331 203.446L57.1234 203.454L57.114 203.463L57.7808 204.208ZM54.0408 204.076L54.7841 203.407L54.7755 203.398L54.7667 203.388L54.0408 204.076ZM46.1208 195.716L46.8467 195.028L46.1696 194.313L45.4444 194.979L46.1208 195.716ZM43.9648 197.696L43.2884 196.959L42.9648 197.257V197.696H43.9648ZM43.2168 204.252L43.9239 204.959L43.934 204.949L43.9438 204.939L43.2168 204.252ZM39.4328 204.252L38.7058 204.939L38.7156 204.949L38.7257 204.959L39.4328 204.252ZM39.4328 173.232L40.1399 173.939L40.15 173.929L40.1598 173.919L39.4328 173.232ZM43.2168 173.232L42.4898 173.919L42.4996 173.929L42.5097 173.939L43.2168 173.232ZM43.9648 191.404H42.9648V193.763L44.66 192.123L43.9648 191.404ZM53.3808 182.296L54.076 183.015L54.082 183.009L54.0879 183.003L53.3808 182.296ZM57.0328 182.296L56.2875 182.963L56.306 182.983L56.3257 183.003L57.0328 182.296ZM56.7688 185.904L56.1103 185.151L56.1008 185.16L56.0915 185.168L56.7688 185.904ZM50.1248 192.02L49.4475 191.284L48.7116 191.962L49.3892 192.697L50.1248 192.02ZM57.0998 201.069C57.5004 201.491 57.6608 201.911 57.6608 202.36H59.6608C59.6608 201.343 59.2638 200.443 58.5498 199.691L57.0998 201.069ZM57.6608 202.36C57.6608 202.784 57.509 203.127 57.1331 203.446L58.4284 204.97C59.2258 204.292 59.6608 203.403 59.6608 202.36H57.6608ZM57.114 203.463C56.709 203.825 56.3374 203.956 55.9768 203.956V205.956C56.9068 205.956 57.7379 205.588 58.4476 204.953L57.114 203.463ZM55.9768 203.956C55.5086 203.956 55.1299 203.791 54.7841 203.407L53.2975 204.745C54.0076 205.534 54.9196 205.956 55.9768 205.956V203.956ZM54.7667 203.388L46.8467 195.028L45.3948 196.404L53.3148 204.764L54.7667 203.388ZM45.4444 194.979L43.2884 196.959L44.6412 198.433L46.7972 196.453L45.4444 194.979ZM42.9648 197.696V202.316H44.9648V197.696H42.9648ZM42.9648 202.316C42.9648 202.837 42.8036 203.233 42.4898 203.565L43.9438 204.939C44.6272 204.215 44.9648 203.32 44.9648 202.316H42.9648ZM42.5097 203.545C42.2147 203.84 41.8461 204 41.3248 204V206C42.3288 206 43.2215 205.662 43.9239 204.959L42.5097 203.545ZM41.3248 204C40.8035 204 40.4348 203.84 40.1399 203.545L38.7257 204.959C39.4281 205.662 40.3207 206 41.3248 206V204ZM40.1598 203.565C39.8459 203.233 39.6848 202.837 39.6848 202.316H37.6848C37.6848 203.32 38.0223 204.215 38.7058 204.939L40.1598 203.565ZM39.6848 202.316V175.124H37.6848V202.316H39.6848ZM39.6848 175.124C39.6848 174.603 39.845 174.234 40.1399 173.939L38.7257 172.525C38.0232 173.227 37.6848 174.12 37.6848 175.124H39.6848ZM40.1598 173.919C40.4592 173.602 40.8217 173.44 41.3248 173.44V171.44C40.3025 171.44 39.4037 171.806 38.7058 172.545L40.1598 173.919ZM41.3248 173.44C41.8278 173.44 42.1904 173.602 42.4898 173.919L43.9438 172.545C43.2458 171.806 42.3471 171.44 41.3248 171.44V173.44ZM42.5097 173.939C42.8046 174.234 42.9648 174.603 42.9648 175.124H44.9648C44.9648 174.12 44.6263 173.227 43.9239 172.525L42.5097 173.939ZM42.9648 175.124V191.404H44.9648V175.124H42.9648ZM44.66 192.123L54.076 183.015L52.6855 181.577L43.2695 190.685L44.66 192.123ZM54.0879 183.003C54.4732 182.618 54.8698 182.46 55.3168 182.46V180.46C54.2971 180.46 53.403 180.86 52.6737 181.589L54.0879 183.003ZM55.3168 182.46C55.6313 182.46 55.9454 182.58 56.2875 182.963L57.778 181.629C57.1228 180.897 56.2929 180.46 55.3168 180.46V182.46ZM56.3257 183.003C56.7318 183.409 56.8248 183.712 56.8248 183.924H58.8248C58.8248 183.021 58.3897 182.239 57.7399 181.589L56.3257 183.003ZM56.8248 183.924C56.8248 184.253 56.6727 184.659 56.1103 185.151L57.4273 186.657C58.2729 185.917 58.8248 185.003 58.8248 183.924H56.8248ZM56.0915 185.168L49.4475 191.284L50.802 192.756L57.446 186.64L56.0915 185.168ZM49.3892 192.697L57.0892 201.057L58.5603 199.703L50.8603 191.343L49.3892 192.697ZM83.4273 192.68L84.4264 192.722L84.4273 192.701V192.68H83.4273ZM82.5913 194.396L83.2315 195.164L82.5913 194.396ZM66.2233 195.056V194.056H64.9994L65.2433 195.255L66.2233 195.056ZM68.6433 199.148L68.023 199.932L68.0287 199.937L68.0344 199.941L68.6433 199.148ZM75.7273 200.292L76.0184 201.249L76.0372 201.243L76.0558 201.236L75.7273 200.292ZM77.3113 199.588L77.8354 200.44L77.8437 200.435L77.852 200.429L77.3113 199.588ZM78.1473 199.06L77.7001 198.166L77.6657 198.183L77.6328 198.203L78.1473 199.06ZM81.2273 199.324L80.5202 200.031L81.2273 199.324ZM80.6553 203.02L80.0374 202.234L80.0289 202.24L80.0205 202.247L80.6553 203.02ZM77.3553 204.736L77.033 203.789L77.3553 204.736ZM66.7073 203.9L66.2157 204.771L66.2216 204.774L66.7073 203.9ZM62.4833 199.676L61.6064 200.157L61.6098 200.163L62.4833 199.676ZM62.5713 186.916L61.6965 186.431L62.5713 186.916ZM66.7513 182.56L67.2506 183.426L67.2615 183.42L66.7513 182.56ZM77.7513 182.604L77.2239 183.454L77.2304 183.458L77.7513 182.604ZM81.8873 186.872L82.7546 186.374L82.7546 186.374L81.8873 186.872ZM66.2673 190.656L65.2853 190.467L65.0562 191.656H66.2673V190.656ZM77.7953 190.656V191.656H78.7953V190.656H77.7953ZM77.7953 190.348H78.7953V190.3L78.7908 190.253L77.7953 190.348ZM82.4281 192.638C82.4102 193.068 82.2561 193.374 81.9511 193.628L83.2315 195.164C83.9824 194.538 84.3857 193.7 84.4264 192.722L82.4281 192.638ZM81.9511 193.628C81.6075 193.914 81.2195 194.056 80.7433 194.056V196.056C81.675 196.056 82.519 195.758 83.2315 195.164L81.9511 193.628ZM80.7433 194.056H66.2233V196.056H80.7433V194.056ZM65.2433 195.255C65.6374 197.193 66.5578 198.774 68.023 199.932L69.2635 198.364C68.206 197.527 67.5131 196.38 67.2032 194.857L65.2433 195.255ZM68.0344 199.941C69.4697 201.043 71.1062 201.6 72.9113 201.6V199.6C71.5483 199.6 70.3395 199.189 69.2521 198.355L68.0344 199.941ZM72.9113 201.6C74.1535 201.6 75.2059 201.496 76.0184 201.249L75.4361 199.335C74.8993 199.499 74.0743 199.6 72.9113 199.6V201.6ZM76.0558 201.236C76.7636 200.99 77.3671 200.728 77.8354 200.44L76.7872 198.736C76.4927 198.918 76.0403 199.124 75.3987 199.348L76.0558 201.236ZM77.852 200.429C78.2644 200.164 78.5304 199.996 78.6618 199.917L77.6328 198.203C77.4708 198.3 77.1795 198.484 76.7705 198.747L77.852 200.429ZM78.5945 199.954C79.0185 199.742 79.364 199.664 79.6433 199.664V197.664C78.9839 197.664 78.332 197.85 77.7001 198.166L78.5945 199.954ZM79.6433 199.664C79.991 199.664 80.2656 199.777 80.5202 200.031L81.9344 198.617C81.309 197.991 80.5275 197.664 79.6433 197.664V199.664ZM80.5202 200.031C80.7852 200.296 80.8873 200.56 80.8873 200.864H82.8873C82.8873 199.995 82.5493 199.232 81.9344 198.617L80.5202 200.031ZM80.8873 200.864C80.8873 201.257 80.7006 201.713 80.0374 202.234L81.2731 203.806C82.2526 203.037 82.8873 202.055 82.8873 200.864H80.8873ZM80.0205 202.247C79.3195 202.823 78.3371 203.345 77.033 203.789L77.6775 205.683C79.1307 205.188 80.3484 204.566 81.29 203.793L80.0205 202.247ZM77.033 203.789C75.7545 204.225 74.4699 204.44 73.1753 204.44V206.44C74.6966 206.44 76.1987 206.186 77.6775 205.683L77.033 203.789ZM73.1753 204.44C70.8529 204.44 68.8694 203.957 67.1929 203.026L66.2216 204.774C68.2411 205.896 70.5696 206.44 73.1753 206.44V204.44ZM67.1989 203.029C65.5371 202.091 64.2627 200.815 63.3567 199.189L61.6098 200.163C62.6985 202.116 64.2401 203.656 66.2157 204.771L67.1989 203.029ZM63.3601 199.195C62.4506 197.537 61.9873 195.666 61.9873 193.56H59.9873C59.9873 195.971 60.5212 198.178 61.6065 200.157L63.3601 199.195ZM61.9873 193.56C61.9873 191.18 62.4843 189.137 63.4461 187.4L61.6965 186.431C60.5462 188.508 59.9873 190.895 59.9873 193.56H61.9873ZM63.4461 187.4C64.4222 185.638 65.6917 184.325 67.2506 183.426L66.252 181.694C64.3495 182.79 62.8323 184.381 61.6965 186.431L63.4461 187.4ZM67.2615 183.42C68.8416 182.483 70.5139 182.02 72.2953 182.02V180.02C70.1459 180.02 68.1223 180.584 66.2411 181.7L67.2615 183.42ZM72.2953 182.02C74.0383 182.02 75.6752 182.492 77.2239 183.454L78.2786 181.754C76.4247 180.604 74.4242 180.02 72.2953 180.02V182.02ZM77.2304 183.458C78.8149 184.424 80.0754 185.724 81.0199 187.37L82.7546 186.374C81.6458 184.442 80.149 182.896 78.2721 181.75L77.2304 183.458ZM81.0199 187.37C81.9588 189.006 82.4273 190.77 82.4273 192.68H84.4273C84.4273 190.424 83.8691 188.317 82.7546 186.374L81.0199 187.37ZM72.2953 184.86C70.4415 184.86 68.8455 185.296 67.6137 186.276C66.3765 187.261 65.626 188.698 65.2853 190.467L67.2492 190.845C67.5245 189.416 68.0867 188.456 68.8589 187.842C69.6364 187.223 70.7464 186.86 72.2953 186.86V184.86ZM66.2673 191.656H77.7953V189.656H66.2673V191.656ZM78.7953 190.656V190.348H76.7953V190.656H78.7953ZM78.7908 190.253C78.6446 188.719 77.8855 187.428 76.6211 186.403L75.3615 187.957C76.2677 188.692 76.7113 189.513 76.7998 190.443L78.7908 190.253ZM76.6211 186.403C75.3602 185.381 73.9066 184.86 72.2953 184.86V186.86C73.4413 186.86 74.4516 187.219 75.3615 187.957L76.6211 186.403ZM108.951 192.68L109.95 192.722L109.951 192.701V192.68H108.951ZM108.115 194.396L108.755 195.164L108.115 194.396ZM91.7467 195.056V194.056H90.5228L90.7668 195.255L91.7467 195.056ZM94.1667 199.148L93.5465 199.932L93.5521 199.937L93.5579 199.941L94.1667 199.148ZM101.251 200.292L101.542 201.249L101.561 201.243L101.579 201.236L101.251 200.292ZM102.835 199.588L103.359 200.44L103.367 200.435L103.375 200.429L102.835 199.588ZM103.671 199.06L103.223 198.166L103.189 198.183L103.156 198.203L103.671 199.06ZM106.751 199.324L106.044 200.031L106.751 199.324ZM106.179 203.02L105.561 202.234L105.552 202.24L105.544 202.247L106.179 203.02ZM102.879 204.736L102.556 203.789L102.879 204.736ZM92.2307 203.9L91.7391 204.771L91.7451 204.774L92.2307 203.9ZM88.0067 199.676L87.1299 200.157L87.1332 200.163L88.0067 199.676ZM88.0947 186.916L87.2199 186.431L88.0947 186.916ZM92.2747 182.56L92.774 183.426L92.7849 183.42L92.2747 182.56ZM103.275 182.604L102.747 183.454L102.754 183.458L103.275 182.604ZM107.411 186.872L108.278 186.374L108.278 186.374L107.411 186.872ZM91.7907 190.656L90.8088 190.467L90.5797 191.656H91.7907V190.656ZM103.319 190.656V191.656H104.319V190.656H103.319ZM103.319 190.348H104.319V190.3L104.314 190.253L103.319 190.348ZM107.952 192.638C107.934 193.068 107.78 193.374 107.475 193.628L108.755 195.164C109.506 194.538 109.909 193.7 109.95 192.722L107.952 192.638ZM107.475 193.628C107.131 193.914 106.743 194.056 106.267 194.056V196.056C107.198 196.056 108.042 195.758 108.755 195.164L107.475 193.628ZM106.267 194.056H91.7467V196.056H106.267V194.056ZM90.7668 195.255C91.1609 197.193 92.0813 198.774 93.5465 199.932L94.7869 198.364C93.7295 197.527 93.0365 196.38 92.7266 194.857L90.7668 195.255ZM93.5579 199.941C94.9932 201.043 96.6296 201.6 98.4347 201.6V199.6C97.0718 199.6 95.8629 199.189 94.7755 198.355L93.5579 199.941ZM98.4347 201.6C99.677 201.6 100.729 201.496 101.542 201.249L100.96 199.335C100.423 199.499 99.5978 199.6 98.4347 199.6V201.6ZM101.579 201.236C102.287 200.99 102.891 200.728 103.359 200.44L102.311 198.736C102.016 198.918 101.564 199.124 100.922 199.348L101.579 201.236ZM103.375 200.429C103.788 200.164 104.054 199.996 104.185 199.917L103.156 198.203C102.994 198.3 102.703 198.484 102.294 198.747L103.375 200.429ZM104.118 199.954C104.542 199.742 104.887 199.664 105.167 199.664V197.664C104.507 197.664 103.855 197.85 103.223 198.166L104.118 199.954ZM105.167 199.664C105.514 199.664 105.789 199.777 106.044 200.031L107.458 198.617C106.832 197.991 106.051 197.664 105.167 197.664V199.664ZM106.044 200.031C106.309 200.296 106.411 200.56 106.411 200.864H108.411C108.411 199.995 108.073 199.232 107.458 198.617L106.044 200.031ZM106.411 200.864C106.411 201.257 106.224 201.713 105.561 202.234L106.797 203.806C107.776 203.037 108.411 202.055 108.411 200.864H106.411ZM105.544 202.247C104.843 202.823 103.861 203.345 102.556 203.789L103.201 205.683C104.654 205.188 105.872 204.566 106.813 203.793L105.544 202.247ZM102.556 203.789C101.278 204.225 99.9933 204.44 98.6987 204.44V206.44C100.22 206.44 101.722 206.186 103.201 205.683L102.556 203.789ZM98.6987 204.44C96.3763 204.44 94.3929 203.957 92.7163 203.026L91.7451 204.774C93.7646 205.896 96.0931 206.44 98.6987 206.44V204.44ZM92.7223 203.029C91.0605 202.091 89.7861 200.815 88.8802 199.189L87.1332 200.163C88.2219 202.116 89.7635 203.656 91.7391 204.771L92.7223 203.029ZM88.8835 199.195C87.9741 197.537 87.5107 195.666 87.5107 193.56H85.5107C85.5107 195.971 86.0447 198.178 87.1299 200.157L88.8835 199.195ZM87.5107 193.56C87.5107 191.18 88.0077 189.137 88.9695 187.4L87.2199 186.431C86.0697 188.508 85.5107 190.895 85.5107 193.56H87.5107ZM88.9695 187.4C89.9457 185.638 91.2151 184.325 92.774 183.426L91.7754 181.694C89.873 182.79 88.3557 184.381 87.2199 186.431L88.9695 187.4ZM92.7849 183.42C94.365 182.483 96.0374 182.02 97.8187 182.02V180.02C95.6694 180.02 93.6457 180.584 91.7645 181.7L92.7849 183.42ZM97.8187 182.02C99.5617 182.02 101.199 182.492 102.747 183.454L103.802 181.754C101.948 180.604 99.9477 180.02 97.8187 180.02V182.02ZM102.754 183.458C104.338 184.424 105.599 185.724 106.543 187.37L108.278 186.374C107.169 184.442 105.672 182.896 103.796 181.75L102.754 183.458ZM106.543 187.37C107.482 189.006 107.951 190.77 107.951 192.68H109.951C109.951 190.424 109.393 188.317 108.278 186.374L106.543 187.37ZM97.8187 184.86C95.9649 184.86 94.3689 185.296 93.1371 186.276C91.9 187.261 91.1495 188.698 90.8088 190.467L92.7726 190.845C93.0479 189.416 93.6101 188.456 94.3823 187.842C95.1599 187.223 96.2698 186.86 97.8187 186.86V184.86ZM91.7907 191.656H103.319V189.656H91.7907V191.656ZM104.319 190.656V190.348H102.319V190.656H104.319ZM104.314 190.253C104.168 188.719 103.409 187.428 102.145 186.403L100.885 187.957C101.791 188.692 102.235 189.513 102.323 190.443L104.314 190.253ZM102.145 186.403C100.884 185.381 99.43 184.86 97.8187 184.86V186.86C98.9647 186.86 99.9751 187.219 100.885 187.957L102.145 186.403ZM131.042 182.604L130.501 183.445L130.512 183.452L131.042 182.604ZM134.914 186.916L134.022 187.369L134.028 187.38L134.914 186.916ZM134.958 199.544L135.85 199.997L135.853 199.991L134.958 199.544ZM131.086 203.9L131.623 204.744L131.627 204.741L131.086 203.9ZM121.714 204.604L121.284 205.507L121.297 205.513L121.31 205.519L121.714 204.604ZM118.634 202.492L119.341 201.785L117.634 200.078V202.492H118.634ZM117.886 213.008L117.179 212.301L117.169 212.311L117.159 212.321L117.886 213.008ZM114.102 213.052L113.395 213.759V213.759L114.102 213.052ZM114.102 182.252L114.809 182.959L114.819 182.949L114.829 182.939L114.102 182.252ZM117.886 182.252L117.159 182.939L117.169 182.949L117.179 182.959L117.886 182.252ZM118.634 184.32H117.634V187.171L119.415 184.945L118.634 184.32ZM121.582 182.032L122.038 182.922L122.046 182.918L122.054 182.914L121.582 182.032ZM129.502 198.488L128.742 197.839L129.502 198.488ZM129.502 187.972L128.734 188.612L128.741 188.621L128.749 188.629L129.502 187.972ZM120.218 187.972L120.972 188.629L120.979 188.621L120.218 187.972ZM120.218 198.488L119.458 199.137L120.218 198.488ZM125.542 182.02C127.382 182.02 129.026 182.497 130.501 183.445L131.583 181.763C129.773 180.599 127.751 180.02 125.542 180.02V182.02ZM130.512 183.452C131.99 184.376 133.16 185.671 134.023 187.369L135.806 186.463C134.791 184.465 133.38 182.886 131.572 181.756L130.512 183.452ZM134.028 187.38C134.912 189.068 135.366 191.003 135.366 193.208H137.366C137.366 190.72 136.852 188.46 135.8 186.452L134.028 187.38ZM135.366 193.208C135.366 195.418 134.925 197.374 134.064 199.097L135.853 199.991C136.868 197.959 137.366 195.691 137.366 193.208H135.366ZM134.067 199.091C133.203 200.791 132.029 202.105 130.545 203.059L131.627 204.741C133.428 203.583 134.836 201.993 135.85 199.997L134.067 199.091ZM130.549 203.056C129.101 203.978 127.499 204.44 125.718 204.44V206.44C127.868 206.44 129.845 205.875 131.623 204.744L130.549 203.056ZM125.718 204.44C124.446 204.44 123.25 204.189 122.118 203.689L121.31 205.519C122.701 206.133 124.174 206.44 125.718 206.44V204.44ZM122.144 203.701C120.997 203.155 120.069 202.513 119.341 201.785L117.927 203.199C118.842 204.114 119.967 204.88 121.284 205.507L122.144 203.701ZM117.634 202.492V211.116H119.634V202.492H117.634ZM117.634 211.116C117.634 211.637 117.474 212.006 117.179 212.301L118.593 213.715C119.296 213.013 119.634 212.12 119.634 211.116H117.634ZM117.159 212.321C116.86 212.638 116.497 212.8 115.994 212.8V214.8C117.016 214.8 117.915 214.434 118.613 213.695L117.159 212.321ZM115.994 212.8C115.473 212.8 115.104 212.64 114.809 212.345L113.395 213.759C114.097 214.462 114.99 214.8 115.994 214.8V212.8ZM114.809 212.345C114.522 212.058 114.354 211.678 114.354 211.116H112.354C112.354 212.138 112.685 213.049 113.395 213.759L114.809 212.345ZM114.354 211.116V184.144H112.354V211.116H114.354ZM114.354 184.144C114.354 183.623 114.514 183.254 114.809 182.959L113.395 181.545C112.693 182.247 112.354 183.14 112.354 184.144H114.354ZM114.829 182.939C115.129 182.622 115.491 182.46 115.994 182.46V180.46C114.972 180.46 114.073 180.826 113.375 181.565L114.829 182.939ZM115.994 182.46C116.497 182.46 116.86 182.622 117.159 182.939L118.613 181.565C117.915 180.826 117.016 180.46 115.994 180.46V182.46ZM117.179 182.959C117.474 183.254 117.634 183.623 117.634 184.144H119.634C119.634 183.14 119.296 182.247 118.593 181.545L117.179 182.959ZM117.634 184.144V184.32H119.634V184.144H117.634ZM119.415 184.945C120.011 184.2 120.871 183.519 122.038 182.922L121.127 181.142C119.771 181.836 118.665 182.68 117.853 183.695L119.415 184.945ZM122.054 182.914C123.176 182.314 124.334 182.02 125.542 182.02V180.02C123.993 180.02 122.511 180.401 121.11 181.15L122.054 182.914ZM124.882 201.6C127.047 201.6 128.867 200.771 130.263 199.137L128.742 197.839C127.732 199.021 126.472 199.6 124.882 199.6V201.6ZM130.263 199.137C131.641 197.523 132.306 195.523 132.306 193.208H130.306C130.306 195.117 129.768 196.637 128.742 197.839L130.263 199.137ZM132.306 193.208C132.306 190.894 131.642 188.903 130.256 187.315L128.749 188.629C129.768 189.798 130.306 191.298 130.306 193.208H132.306ZM130.27 187.332C128.898 185.685 127.072 184.86 124.882 184.86V186.86C126.506 186.86 127.759 187.443 128.734 188.612L130.27 187.332ZM124.882 184.86C122.693 184.86 120.857 185.685 119.458 187.323L120.979 188.621C121.985 187.443 123.258 186.86 124.882 186.86V184.86ZM119.465 187.315C118.079 188.903 117.414 190.894 117.414 193.208H119.414C119.414 191.298 119.952 189.798 120.972 188.629L119.465 187.315ZM117.414 193.208C117.414 195.523 118.079 197.523 119.458 199.137L120.979 197.839C119.952 196.637 119.414 195.117 119.414 193.208H117.414ZM119.458 199.137C120.857 200.775 122.693 201.6 124.882 201.6V199.6C123.258 199.6 121.985 199.017 120.979 197.839L119.458 199.137ZM177.696 200.688L178.22 199.836L178.183 199.813L178.143 199.794L177.696 200.688ZM178.576 201.612L177.696 202.086L177.709 202.112L177.725 202.136L178.576 201.612ZM178.4 204.252L179.168 204.892L179.175 204.885L179.181 204.877L178.4 204.252ZM174.44 204.56L173.945 205.429L173.952 205.433L173.958 205.436L174.44 204.56ZM170.216 194.704L169.542 195.442L169.55 195.45L169.558 195.457L170.216 194.704ZM159.04 193.78V192.78H158.04V193.78H159.04ZM158.38 204.252L157.63 203.59L157.619 203.603L157.608 203.616L158.38 204.252ZM154.464 204.252L153.813 205.011L153.833 205.028L153.853 205.043L154.464 204.252ZM154.288 174.992L153.581 174.285V174.285L154.288 174.992ZM173.208 175.432L172.688 176.286L173.208 175.432ZM176.42 178.82L175.544 179.303L175.548 179.309L175.552 179.316L176.42 178.82ZM176.464 187.972L177.331 188.47L177.336 188.462L176.464 187.972ZM173.384 191.272L172.839 190.434L171.596 191.243L172.812 192.092L173.384 191.272ZM176.42 196.464L175.424 196.545L175.428 196.597L175.437 196.648L176.42 196.464ZM176.552 197.828H175.552V197.892L175.56 197.956L176.552 197.828ZM176.904 199.808L175.943 200.083L175.945 200.092L175.948 200.102L176.904 199.808ZM171.448 186.52L172.379 186.886L172.383 186.875L171.448 186.52ZM171.448 181.548L170.539 181.965L170.543 181.972L170.546 181.979L171.448 181.548ZM170.216 179.876L170.852 179.104V179.104L170.216 179.876ZM159.04 179.26V178.26H158.04V179.26H159.04ZM159.04 189.248H158.04V190.248H159.04V189.248ZM177.172 201.54C177.409 201.685 177.577 201.865 177.696 202.086L179.457 201.138C179.165 200.596 178.746 200.16 178.22 199.836L177.172 201.54ZM177.725 202.136C177.871 202.375 177.928 202.591 177.928 202.8H179.928C179.928 202.188 179.75 201.612 179.428 201.088L177.725 202.136ZM177.928 202.8C177.928 203.085 177.84 203.352 177.619 203.627L179.181 204.877C179.665 204.272 179.928 203.571 179.928 202.8H177.928ZM177.632 203.612C177.439 203.843 177.091 204.044 176.376 204.044V206.044C177.48 206.044 178.481 205.717 179.168 204.892L177.632 203.612ZM176.376 204.044C175.832 204.044 175.354 203.921 174.922 203.684L173.958 205.436C174.7 205.844 175.513 206.044 176.376 206.044V204.044ZM174.935 203.691C173.279 202.748 172.272 200.751 172.272 197.212H170.272C170.272 201.065 171.378 203.967 173.945 205.429L174.935 203.691ZM172.272 197.212C172.272 195.909 171.825 194.783 170.875 193.951L169.558 195.457C170.015 195.857 170.272 196.403 170.272 197.212H172.272ZM170.891 193.966C169.968 193.123 168.706 192.78 167.268 192.78V194.78C168.412 194.78 169.116 195.053 169.542 195.442L170.891 193.966ZM167.268 192.78H159.04V194.78H167.268V192.78ZM158.04 193.78V202.316H160.04V193.78H158.04ZM158.04 202.316C158.04 202.913 157.879 203.308 157.63 203.59L159.13 204.914C159.761 204.199 160.04 203.303 160.04 202.316H158.04ZM157.608 203.616C157.406 203.862 157.144 204 156.708 204V206C157.681 206 158.533 205.64 159.152 204.888L157.608 203.616ZM156.708 204C156.069 204 155.538 203.818 155.076 203.461L153.853 205.043C154.681 205.683 155.647 206 156.708 206V204ZM155.115 203.493C154.705 203.141 154.54 202.766 154.54 202.316H152.54C152.54 203.391 152.992 204.307 153.813 205.011L155.115 203.493ZM154.54 202.316V176.884H152.54V202.316H154.54ZM154.54 176.884C154.54 176.363 154.7 175.994 154.995 175.699L153.581 174.285C152.879 174.987 152.54 175.88 152.54 176.884H154.54ZM154.995 175.699C155.331 175.363 155.72 175.2 156.224 175.2V173.2C155.203 173.2 154.301 173.565 153.581 174.285L154.995 175.699ZM156.224 175.2H168.896V173.2H156.224V175.2ZM168.896 175.2C170.231 175.2 171.49 175.557 172.688 176.286L173.728 174.578C172.228 173.665 170.612 173.2 168.896 173.2V175.2ZM172.688 176.286C173.883 177.013 174.833 178.012 175.544 179.303L177.296 178.337C176.423 176.753 175.232 175.493 173.728 174.578L172.688 176.286ZM175.552 179.316C176.28 180.59 176.652 182.03 176.652 183.66H178.652C178.652 181.711 178.203 179.924 177.288 178.324L175.552 179.316ZM176.652 183.66C176.652 184.938 176.309 186.208 175.593 187.482L177.336 188.462C178.203 186.92 178.652 185.315 178.652 183.66H176.652ZM175.597 187.474C174.879 188.723 173.96 189.704 172.839 190.434L173.93 192.11C175.331 191.198 176.465 189.978 177.331 188.47L175.597 187.474ZM172.812 192.092C174.425 193.219 175.273 194.683 175.424 196.545L177.417 196.383C177.216 193.903 176.039 191.907 173.957 190.452L172.812 192.092ZM175.437 196.648C175.515 197.062 175.552 197.455 175.552 197.828H177.552C177.552 197.321 177.502 196.805 177.403 196.28L175.437 196.648ZM175.56 197.956C175.679 198.872 175.803 199.595 175.943 200.083L177.866 199.533C177.77 199.199 177.66 198.603 177.544 197.7L175.56 197.956ZM175.948 200.102C176.158 200.785 176.634 201.275 177.249 201.582L178.143 199.794C177.937 199.69 177.885 199.594 177.86 199.514L175.948 200.102ZM168.676 190.248C169.549 190.248 170.302 189.828 170.923 189.207L169.509 187.793C169.133 188.169 168.859 188.248 168.676 188.248V190.248ZM170.923 189.207C171.54 188.59 172.018 187.804 172.379 186.886L170.517 186.154C170.233 186.879 169.889 187.413 169.509 187.793L170.923 189.207ZM172.383 186.875C172.752 185.904 172.932 184.873 172.932 183.792H170.932C170.932 184.647 170.79 185.435 170.513 186.165L172.383 186.875ZM172.932 183.792C172.932 182.836 172.744 181.939 172.35 181.117L170.546 181.979C170.798 182.507 170.932 183.105 170.932 183.792H172.932ZM172.357 181.131C171.984 180.317 171.488 179.628 170.852 179.104L169.581 180.648C169.941 180.945 170.267 181.371 170.539 181.965L172.357 181.131ZM170.852 179.104C170.216 178.58 169.485 178.26 168.676 178.26V180.26C168.924 180.26 169.22 180.351 169.581 180.648L170.852 179.104ZM168.676 178.26H159.04V180.26H168.676V178.26ZM158.04 179.26V189.248H160.04V179.26H158.04ZM159.04 190.248H168.676V188.248H159.04V190.248ZM225.231 204.252L224.524 203.545V203.545L225.231 204.252ZM221.491 204.252L220.764 204.939L220.774 204.949L220.784 204.959L221.491 204.252ZM221.491 173.232L220.784 172.525V172.525L221.491 173.232ZM225.275 173.232L224.548 173.919L224.558 173.929L224.568 173.939L225.275 173.232ZM225.023 202.316C225.023 202.82 224.86 203.209 224.524 203.545L225.938 204.959C226.658 204.239 227.023 203.338 227.023 202.316H225.023ZM224.524 203.545C224.229 203.84 223.861 204 223.339 204V206C224.343 206 225.236 205.662 225.938 204.959L224.524 203.545ZM223.339 204C222.859 204 222.501 203.848 222.198 203.545L220.784 204.959C221.479 205.653 222.353 206 223.339 206V204ZM222.218 203.565C221.904 203.233 221.743 202.837 221.743 202.316H219.743C219.743 203.32 220.081 204.215 220.764 204.939L222.218 203.565ZM221.743 202.316V175.124H219.743V202.316H221.743ZM221.743 175.124C221.743 174.603 221.904 174.234 222.198 173.939L220.784 172.525C220.082 173.227 219.743 174.12 219.743 175.124H221.743ZM222.198 173.939C222.534 173.603 222.924 173.44 223.427 173.44V171.44C222.406 171.44 221.504 171.805 220.784 172.525L222.198 173.939ZM223.427 173.44C223.889 173.44 224.241 173.593 224.548 173.919L226.002 172.545C225.313 171.815 224.433 171.44 223.427 171.44V173.44ZM224.568 173.939C224.863 174.234 225.023 174.603 225.023 175.124H227.023C227.023 174.12 226.685 173.227 225.982 172.525L224.568 173.939ZM225.023 175.124V202.316H227.023V175.124H225.023ZM237.091 204.252L236.384 203.545V203.545L237.091 204.252ZM233.351 204.252L232.624 204.939L232.634 204.949L232.644 204.959L233.351 204.252ZM233.351 173.232L232.644 172.525V172.525L233.351 173.232ZM237.135 173.232L236.408 173.919L236.418 173.929L236.428 173.939L237.135 173.232ZM236.883 202.316C236.883 202.82 236.72 203.209 236.384 203.545L237.798 204.959C238.518 204.239 238.883 203.338 238.883 202.316H236.883ZM236.384 203.545C236.089 203.84 235.72 204 235.199 204V206C236.203 206 237.095 205.662 237.798 204.959L236.384 203.545ZM235.199 204C234.719 204 234.361 203.848 234.058 203.545L232.644 204.959C233.338 205.653 234.212 206 235.199 206V204ZM234.078 203.565C233.764 203.233 233.603 202.837 233.603 202.316H231.603C231.603 203.32 231.94 204.215 232.624 204.939L234.078 203.565ZM233.603 202.316V175.124H231.603V202.316H233.603ZM233.603 175.124C233.603 174.603 233.763 174.234 234.058 173.939L232.644 172.525C231.941 173.227 231.603 174.12 231.603 175.124H233.603ZM234.058 173.939C234.394 173.603 234.783 173.44 235.287 173.44V171.44C234.265 171.44 233.364 171.805 232.644 172.525L234.058 173.939ZM235.287 173.44C235.748 173.44 236.1 173.593 236.408 173.919L237.862 172.545C237.172 171.815 236.292 171.44 235.287 171.44V173.44ZM236.428 173.939C236.723 174.234 236.883 174.603 236.883 175.124H238.883C238.883 174.12 238.544 173.227 237.842 172.525L236.428 173.939ZM236.883 175.124V202.316H238.883V175.124H236.883ZM248.246 204.252L248.953 204.959L248.963 204.949L248.973 204.939L248.246 204.252ZM244.462 204.252L243.735 204.939L243.745 204.949L243.755 204.959L244.462 204.252ZM244.462 182.252L245.169 182.959L245.179 182.949L245.189 182.939L244.462 182.252ZM248.246 182.252L247.519 182.939L247.529 182.949L247.539 182.959L248.246 182.252ZM244.198 178.116L243.58 178.902V178.902L244.198 178.116ZM244.242 173.848L244.833 174.654L244.833 174.654L244.242 173.848ZM248.51 173.848L247.892 174.634V174.634L248.51 173.848ZM248.466 178.16L249.047 178.974L249.057 178.966L248.466 178.16ZM247.994 202.316C247.994 202.837 247.833 203.233 247.519 203.565L248.973 204.939C249.657 204.215 249.994 203.32 249.994 202.316H247.994ZM247.539 203.545C247.244 203.84 246.875 204 246.354 204V206C247.358 206 248.251 205.662 248.953 204.959L247.539 203.545ZM246.354 204C245.833 204 245.464 203.84 245.169 203.545L243.755 204.959C244.457 205.662 245.35 206 246.354 206V204ZM245.189 203.565C244.875 203.233 244.714 202.837 244.714 202.316H242.714C242.714 203.32 243.052 204.215 243.735 204.939L245.189 203.565ZM244.714 202.316V184.144H242.714V202.316H244.714ZM244.714 184.144C244.714 183.623 244.874 183.254 245.169 182.959L243.755 181.545C243.053 182.247 242.714 183.14 242.714 184.144H244.714ZM245.189 182.939C245.488 182.622 245.851 182.46 246.354 182.46V180.46C245.332 180.46 244.433 180.826 243.735 181.565L245.189 182.939ZM246.354 182.46C246.857 182.46 247.22 182.622 247.519 182.939L248.973 181.565C248.275 180.826 247.376 180.46 246.354 180.46V182.46ZM247.539 182.959C247.834 183.254 247.994 183.623 247.994 184.144H249.994C249.994 183.14 249.656 182.247 248.953 181.545L247.539 182.959ZM247.994 184.144V202.316H249.994V184.144H247.994ZM246.31 177.6C245.362 177.6 244.95 177.435 244.816 177.33L243.58 178.902C244.268 179.443 245.264 179.6 246.31 179.6V177.6ZM244.816 177.33C244.758 177.284 244.582 177.092 244.582 176.4H242.582C242.582 177.351 242.817 178.302 243.58 178.902L244.816 177.33ZM244.582 176.4V175.564H242.582V176.4H244.582ZM244.582 175.564C244.582 174.894 244.761 174.708 244.833 174.654L243.651 173.042C242.844 173.633 242.582 174.591 242.582 175.564H244.582ZM244.833 174.654C245.013 174.522 245.453 174.364 246.354 174.364V172.364C245.319 172.364 244.351 172.528 243.651 173.042L244.833 174.654ZM246.354 174.364C247.34 174.364 247.762 174.532 247.892 174.634L249.128 173.062C248.437 172.519 247.421 172.364 246.354 172.364V174.364ZM247.892 174.634C247.95 174.68 248.126 174.872 248.126 175.564H250.126C250.126 174.613 249.891 173.662 249.128 173.062L247.892 174.634ZM248.126 175.564V176.4H250.126V175.564H248.126ZM248.126 176.4C248.126 177.114 247.94 177.306 247.875 177.354L249.057 178.966C249.873 178.369 250.126 177.387 250.126 176.4H248.126ZM247.885 177.346C247.747 177.445 247.306 177.6 246.31 177.6V179.6C247.367 179.6 248.364 179.462 249.047 178.974L247.885 177.346ZM273.209 183.704L272.366 184.243L272.37 184.249L273.209 183.704ZM274.177 204.252L274.884 204.959L274.894 204.949L274.904 204.939L274.177 204.252ZM270.393 204.252L269.666 204.939L269.675 204.949L269.685 204.959L270.393 204.252ZM268.633 187.268L267.821 187.852L267.825 187.858L267.829 187.864L268.633 187.268ZM261.153 187.356L261.86 188.063L261.865 188.058L261.87 188.052L261.153 187.356ZM258.953 204.252L259.66 204.959L259.67 204.949L259.68 204.939L258.953 204.252ZM255.169 204.252L254.442 204.939L254.451 204.949L254.461 204.959L255.169 204.252ZM255.169 182.252L255.876 182.959L255.886 182.949L255.896 182.939L255.169 182.252ZM258.953 182.252L258.226 182.939L258.235 182.949L258.245 182.959L258.953 182.252ZM259.701 184.892H258.701V187.892L260.501 185.492L259.701 184.892ZM262.781 182.164L262.272 181.303L262.263 181.308L262.781 182.164ZM267.005 182.02C269.808 182.02 271.475 182.849 272.366 184.243L274.051 183.165C272.654 180.98 270.185 180.02 267.005 180.02V182.02ZM272.37 184.249C273.369 185.785 273.925 188.017 273.925 191.052H275.925C275.925 187.81 275.337 185.143 274.047 183.159L272.37 184.249ZM273.925 191.052V202.316H275.925V191.052H273.925ZM273.925 202.316C273.925 202.837 273.763 203.233 273.45 203.565L274.904 204.939C275.587 204.215 275.925 203.32 275.925 202.316H273.925ZM273.469 203.545C273.175 203.84 272.806 204 272.285 204V206C273.289 206 274.181 205.662 274.884 204.959L273.469 203.545ZM272.285 204C271.763 204 271.395 203.84 271.1 203.545L269.685 204.959C270.388 205.662 271.281 206 272.285 206V204ZM271.12 203.565C270.806 203.233 270.645 202.837 270.645 202.316H268.645C268.645 203.32 268.982 204.215 269.666 204.939L271.12 203.565ZM270.645 202.316V191.052H268.645V202.316H270.645ZM270.645 191.052C270.645 189.312 270.282 187.813 269.436 186.672L267.829 187.864C268.332 188.541 268.645 189.565 268.645 191.052H270.645ZM269.445 186.684C268.511 185.386 266.977 184.86 265.157 184.86V186.86C266.622 186.86 267.405 187.273 267.821 187.852L269.445 186.684ZM265.157 184.86C263.25 184.86 261.632 185.426 260.435 186.66L261.87 188.052C262.609 187.291 263.661 186.86 265.157 186.86V184.86ZM260.445 186.649C259.272 187.823 258.701 189.318 258.701 191.052H260.701C260.701 189.794 261.098 188.825 261.86 188.063L260.445 186.649ZM258.701 191.052V202.316H260.701V191.052H258.701ZM258.701 202.316C258.701 202.837 258.539 203.233 258.226 203.565L259.68 204.939C260.363 204.215 260.701 203.32 260.701 202.316H258.701ZM258.245 203.545C257.951 203.84 257.582 204 257.061 204V206C258.065 206 258.957 205.662 259.66 204.959L258.245 203.545ZM257.061 204C256.539 204 256.171 203.84 255.876 203.545L254.461 204.959C255.164 205.662 256.057 206 257.061 206V204ZM255.896 203.565C255.582 203.233 255.421 202.837 255.421 202.316H253.421C253.421 203.32 253.758 204.215 254.442 204.939L255.896 203.565ZM255.421 202.316V184.144H253.421V202.316H255.421ZM255.421 184.144C255.421 183.623 255.581 183.254 255.876 182.959L254.461 181.545C253.759 182.247 253.421 183.14 253.421 184.144H255.421ZM255.896 182.939C256.195 182.622 256.558 182.46 257.061 182.46V180.46C256.038 180.46 255.139 180.826 254.442 181.565L255.896 182.939ZM257.061 182.46C257.564 182.46 257.926 182.622 258.226 182.939L259.68 181.565C258.982 180.826 258.083 180.46 257.061 180.46V182.46ZM258.245 182.959C258.54 183.254 258.701 183.623 258.701 184.144H260.701C260.701 183.14 260.362 182.247 259.66 181.545L258.245 182.959ZM258.701 184.144V184.892H260.701V184.144H258.701ZM260.501 185.492C261.207 184.55 262.134 183.724 263.298 183.02L262.263 181.308C260.905 182.13 259.778 183.122 258.901 184.292L260.501 185.492ZM263.289 183.025C264.423 182.355 265.655 182.02 267.005 182.02V180.02C265.304 180.02 263.719 180.448 262.272 181.303L263.289 183.025ZM302.015 181.768L301.308 182.475V182.475L302.015 181.768ZM299.419 211.204L298.813 210.409L298.807 210.414L298.801 210.418L299.419 211.204ZM287.363 213.36L287.175 214.342L287.178 214.343L287.363 213.36ZM284.107 212.48L284.521 211.57L284.511 211.565L284.501 211.561L284.107 212.48ZM282.083 209.224L283.032 209.54L283.041 209.514L283.048 209.487L282.083 209.224ZM282.963 207.728L282.372 206.922L282.342 206.944L282.313 206.969L282.963 207.728ZM285.207 207.376L284.891 208.325L284.928 208.337L284.965 208.346L285.207 207.376ZM287.363 208.168L287.728 207.237L287.717 207.233L287.363 208.168ZM295.855 207.64L295.239 206.853L295.227 206.862L295.215 206.872L295.855 207.64ZM297.483 201.876H298.483V198.739L296.668 201.297L297.483 201.876ZM294.535 204.34L294.05 203.466L294.041 203.471L294.535 204.34ZM284.723 203.9L284.189 204.745L284.198 204.751L284.207 204.756L284.723 203.9ZM280.763 199.544L281.649 199.08L280.763 199.544ZM280.719 186.96L279.831 186.502L279.828 186.507L280.719 186.96ZM284.635 182.604L285.165 183.452L285.169 183.449L284.635 182.604ZM294.359 181.944L294.79 181.042L294.359 181.944ZM297.483 184.188L296.74 184.857L298.483 186.794V184.188H297.483ZM298.231 181.812L298.939 182.519L298.949 182.509L298.958 182.499L298.231 181.812ZM295.811 198.532L295.067 197.865L295.066 197.866L295.811 198.532ZM295.811 187.972L295.059 188.631L295.067 188.639L295.811 187.972ZM286.219 187.972L285.467 187.313L286.219 187.972ZM286.219 198.532L285.467 199.191L285.474 199.198L286.219 198.532ZM300.123 182.02C300.645 182.02 301.013 182.18 301.308 182.475L302.723 181.061C302.02 180.358 301.128 180.02 300.123 180.02V182.02ZM301.308 182.475C301.596 182.762 301.763 183.142 301.763 183.704H303.763C303.763 182.682 303.433 181.771 302.723 181.061L301.308 182.475ZM301.763 183.704V203.284H303.763V183.704H301.763ZM301.763 203.284C301.763 206.645 300.728 208.948 298.813 210.409L300.026 211.999C302.57 210.058 303.763 207.08 303.763 203.284H301.763ZM298.801 210.418C296.813 211.982 294.244 212.8 291.015 212.8V214.8C294.593 214.8 297.626 213.887 300.038 211.99L298.801 210.418ZM291.015 212.8C290.228 212.8 289.083 212.667 287.549 212.377L287.178 214.343C288.754 214.64 290.043 214.8 291.015 214.8V212.8ZM287.552 212.378C286.035 212.086 285.051 211.81 284.521 211.57L283.694 213.39C284.455 213.736 285.641 214.047 287.175 214.342L287.552 212.378ZM284.501 211.561C283.243 211.021 282.951 210.441 282.951 209.928H280.951C280.951 211.585 282.098 212.707 283.714 213.399L284.501 211.561ZM282.951 209.928C282.951 209.861 282.967 209.736 283.032 209.54L281.135 208.908C281.024 209.24 280.951 209.585 280.951 209.928H282.951ZM283.048 209.487C283.184 208.989 283.388 208.681 283.614 208.487L282.313 206.969C281.717 207.479 281.335 208.168 281.119 208.961L283.048 209.487ZM283.555 208.534C283.84 208.325 284.106 208.244 284.371 208.244V206.244C283.64 206.244 282.967 206.486 282.372 206.922L283.555 208.534ZM284.371 208.244C284.563 208.244 284.735 208.272 284.891 208.325L285.524 206.427C285.152 206.304 284.766 206.244 284.371 206.244V208.244ZM284.965 208.346C284.957 208.344 285.097 208.391 285.49 208.535C285.845 208.665 286.351 208.854 287.01 209.103L287.717 207.233C287.056 206.983 286.543 206.791 286.179 206.657C285.853 206.537 285.575 206.437 285.45 206.406L284.965 208.346ZM286.999 209.099C288.428 209.658 289.771 209.96 291.015 209.96V207.96C290.089 207.96 288.998 207.734 287.728 207.237L286.999 209.099ZM291.015 209.96C293.292 209.96 295.182 209.503 296.496 208.408L295.215 206.872C294.417 207.537 293.08 207.96 291.015 207.96V209.96ZM296.472 208.427C297.837 207.357 298.483 205.828 298.483 203.988H296.483C296.483 205.316 296.044 206.222 295.239 206.853L296.472 208.427ZM298.483 203.988V201.876H296.483V203.988H298.483ZM296.668 201.297C296.134 202.049 295.283 202.781 294.05 203.466L295.021 205.214C296.428 204.433 297.542 203.521 298.299 202.455L296.668 201.297ZM294.041 203.471C292.903 204.118 291.68 204.44 290.355 204.44V206.44C292.023 206.44 293.587 206.029 295.029 205.209L294.041 203.471ZM290.355 204.44C288.478 204.44 286.78 203.973 285.24 203.044L284.207 204.756C286.069 205.88 288.126 206.44 290.355 206.44V204.44ZM285.257 203.055C283.743 202.098 282.54 200.781 281.649 199.08L279.878 200.008C280.923 202.003 282.36 203.59 284.189 204.745L285.257 203.055ZM281.649 199.08C280.765 197.392 280.311 195.457 280.311 193.252H278.311C278.311 195.74 278.826 198 279.878 200.008L281.649 199.08ZM280.311 193.252C280.311 191.042 280.753 189.103 281.611 187.413L279.828 186.507C278.809 188.513 278.311 190.769 278.311 193.252H280.311ZM281.608 187.418C282.502 185.686 283.689 184.375 285.165 183.452L284.105 181.756C282.297 182.886 280.873 184.479 279.831 186.502L281.608 187.418ZM285.169 183.449C286.678 182.497 288.34 182.02 290.179 182.02V180.02C287.971 180.02 285.937 180.599 284.102 181.759L285.169 183.449ZM290.179 182.02C291.533 182.02 292.779 182.298 293.929 182.846L294.79 181.042C293.359 180.358 291.817 180.02 290.179 180.02V182.02ZM293.929 182.846C295.125 183.417 296.052 184.093 296.74 184.857L298.227 183.519C297.331 182.523 296.175 181.703 294.79 181.042L293.929 182.846ZM298.483 184.188V183.704H296.483V184.188H298.483ZM298.483 183.704C298.483 183.183 298.644 182.814 298.939 182.519L297.524 181.105C296.822 181.807 296.483 182.7 296.483 183.704H298.483ZM298.958 182.499C299.258 182.182 299.62 182.02 300.123 182.02V180.02C299.101 180.02 298.202 180.386 297.504 181.125L298.958 182.499ZM291.015 201.6C293.245 201.6 295.122 200.804 296.557 199.198L295.066 197.866C294.037 199.017 292.716 199.6 291.015 199.6V201.6ZM296.556 199.199C298.002 197.586 298.703 195.579 298.703 193.252H296.703C296.703 195.149 296.144 196.662 295.067 197.865L296.556 199.199ZM298.703 193.252C298.703 190.925 298.002 188.918 296.556 187.305L295.067 188.639C296.144 189.842 296.703 191.355 296.703 193.252H298.703ZM296.564 187.313C295.132 185.676 293.253 184.86 291.015 184.86V186.86C292.709 186.86 294.027 187.452 295.059 188.631L296.564 187.313ZM291.015 184.86C288.778 184.86 286.899 185.676 285.467 187.313L286.972 188.631C288.004 187.452 289.322 186.86 291.015 186.86V184.86ZM285.467 187.313C284.055 188.927 283.371 190.931 283.371 193.252H285.371C285.371 191.349 285.92 189.833 286.972 188.631L285.467 187.313ZM283.371 193.252C283.371 195.573 284.055 197.577 285.467 199.191L286.972 197.873C285.92 196.671 285.371 195.155 285.371 193.252H283.371ZM285.474 199.198C286.909 200.804 288.786 201.6 291.015 201.6V199.6C289.315 199.6 287.994 199.017 286.965 197.866L285.474 199.198Z" fill="black"/>
</svg>
